<svg width="151" height="187" viewBox="0 0 151 187" fill="none" xmlns="http://www.w3.org/2000/svg">
<g clip-path="url(#clip0_21_2)">
<g clip-path="url(#clip1_21_2)">
<path d="M145.444 5.22066H5.76318V144.694H145.444V5.22066Z" fill="white"/>
<path d="M57.6547 17.2851H53.6738V21.2601H57.6547V17.2851Z" fill="black"/>
<path d="M77.5595 17.2851H73.5786V21.2601H77.5595V17.2851Z" fill="black"/>
<path d="M81.54 17.2851H77.5591V21.2601H81.54V17.2851Z" fill="black"/>
<path d="M85.521 17.2851H81.54V21.2601H85.521V17.2851Z" fill="black"/>
<path d="M93.4829 17.2851H89.502V21.2601H93.4829V17.2851Z" fill="black"/>
<path d="M97.4638 17.2851H93.4829V21.2601H97.4638V17.2851Z" fill="black"/>
<path d="M101.445 17.2851H97.4639V21.2601H101.445V17.2851Z" fill="black"/>
<path d="M53.6738 21.2601H49.6929V25.2351H53.6738V21.2601Z" fill="black"/>
<path d="M57.6547 21.2601H53.6738V25.2351H57.6547V21.2601Z" fill="black"/>
<path d="M65.6167 21.2601H61.6357V25.2351H65.6167V21.2601Z" fill="black"/>
<path d="M69.5976 21.2601H65.6167V25.2351H69.5976V21.2601Z" fill="black"/>
<path d="M89.5019 21.2601H85.521V25.2351H89.5019V21.2601Z" fill="black"/>
<path d="M97.4638 21.2601H93.4829V25.2351H97.4638V21.2601Z" fill="black"/>
<path d="M57.6547 25.2351H53.6738V29.21H57.6547V25.2351Z" fill="black"/>
<path d="M61.6357 25.2351H57.6548V29.21H61.6357V25.2351Z" fill="black"/>
<path d="M65.6167 25.2351H61.6357V29.21H65.6167V25.2351Z" fill="black"/>
<path d="M85.521 25.2351H81.54V29.21H85.521V25.2351Z" fill="black"/>
<path d="M97.4638 25.2351H93.4829V29.21H97.4638V25.2351Z" fill="black"/>
<path d="M53.6738 29.21H49.6929V33.185H53.6738V29.21Z" fill="black"/>
<path d="M57.6547 29.21H53.6738V33.185H57.6547V29.21Z" fill="black"/>
<path d="M65.6167 29.21H61.6357V33.185H65.6167V29.21Z" fill="black"/>
<path d="M81.54 29.21H77.5591V33.185H81.54V29.21Z" fill="black"/>
<path d="M85.521 29.21H81.54V33.185H85.521V29.21Z" fill="black"/>
<path d="M89.5019 29.21H85.521V33.185H89.5019V29.21Z" fill="black"/>
<path d="M93.4829 29.21H89.502V33.185H93.4829V29.21Z" fill="black"/>
<path d="M61.6357 33.185H57.6548V37.16H61.6357V33.185Z" fill="black"/>
<path d="M69.5976 33.185H65.6167V37.16H69.5976V33.185Z" fill="black"/>
<path d="M73.5786 33.185H69.5977V37.16H73.5786V33.185Z" fill="black"/>
<path d="M85.521 33.185H81.54V37.16H85.521V33.185Z" fill="black"/>
<path d="M97.4638 33.185H93.4829V37.16H97.4638V33.185Z" fill="black"/>
<path d="M101.445 33.185H97.4639V37.16H101.445V33.185Z" fill="black"/>
<path d="M53.6738 37.16H49.6929V41.135H53.6738V37.16Z" fill="black"/>
<path d="M61.6357 37.16H57.6548V41.135H61.6357V37.16Z" fill="black"/>
<path d="M73.5786 37.16H69.5977V41.135H73.5786V37.16Z" fill="black"/>
<path d="M77.5595 37.16H73.5786V41.135H77.5595V37.16Z" fill="black"/>
<path d="M89.5019 37.16H85.521V41.135H89.5019V37.16Z" fill="black"/>
<path d="M101.445 37.16H97.4639V41.135H101.445V37.16Z" fill="black"/>
<path d="M53.6738 41.135H49.6929V45.11H53.6738V41.135Z" fill="black"/>
<path d="M61.6357 41.135H57.6548V45.11H61.6357V41.135Z" fill="black"/>
<path d="M69.5976 41.135H65.6167V45.11H69.5976V41.135Z" fill="black"/>
<path d="M77.5595 41.135H73.5786V45.11H77.5595V41.135Z" fill="black"/>
<path d="M85.521 41.135H81.54V45.11H85.521V41.135Z" fill="black"/>
<path d="M93.4829 41.135H89.502V45.11H93.4829V41.135Z" fill="black"/>
<path d="M101.445 41.135H97.4639V45.11H101.445V41.135Z" fill="black"/>
<path d="M69.5976 45.11H65.6167V49.085H69.5976V45.11Z" fill="black"/>
<path d="M73.5786 45.11H69.5977V49.085H73.5786V45.11Z" fill="black"/>
<path d="M85.521 45.11H81.54V49.085H85.521V45.11Z" fill="black"/>
<path d="M97.4638 45.11H93.4829V49.085H97.4638V45.11Z" fill="black"/>
<path d="M101.445 45.11H97.4639V49.085H101.445V45.11Z" fill="black"/>
<path d="M21.8266 49.085H17.8457V53.06H21.8266V49.085Z" fill="black"/>
<path d="M25.8076 49.085H21.8267V53.06H25.8076V49.085Z" fill="black"/>
<path d="M29.788 49.085H25.8071V53.06H29.788V49.085Z" fill="black"/>
<path d="M33.769 49.085H29.7881V53.06H33.769V49.085Z" fill="black"/>
<path d="M37.75 49.085H33.769V53.06H37.75V49.085Z" fill="black"/>
<path d="M45.7119 49.085H41.731V53.06H45.7119V49.085Z" fill="black"/>
<path d="M49.6928 49.085H45.7119V53.06H49.6928V49.085Z" fill="black"/>
<path d="M53.6738 49.085H49.6929V53.06H53.6738V49.085Z" fill="black"/>
<path d="M57.6547 49.085H53.6738V53.06H57.6547V49.085Z" fill="black"/>
<path d="M61.6357 49.085H57.6548V53.06H61.6357V49.085Z" fill="black"/>
<path d="M69.5976 49.085H65.6167V53.06H69.5976V49.085Z" fill="black"/>
<path d="M77.5595 49.085H73.5786V53.06H77.5595V49.085Z" fill="black"/>
<path d="M81.54 49.085H77.5591V53.06H81.54V49.085Z" fill="black"/>
<path d="M85.521 49.085H81.54V53.06H85.521V49.085Z" fill="black"/>
<path d="M93.4829 49.085H89.502V53.06H93.4829V49.085Z" fill="black"/>
<path d="M101.445 49.085H97.4639V53.06H101.445V49.085Z" fill="black"/>
<path d="M105.425 49.085H101.444V53.06H105.425V49.085Z" fill="black"/>
<path d="M113.388 49.085H109.407V53.06H113.388V49.085Z" fill="black"/>
<path d="M121.349 49.085H117.368V53.06H121.349V49.085Z" fill="black"/>
<path d="M129.311 49.085H125.33V53.06H129.311V49.085Z" fill="black"/>
<path d="M25.8076 53.06H21.8267V57.0349H25.8076V53.06Z" fill="black"/>
<path d="M29.788 53.06H25.8071V57.0349H29.788V53.06Z" fill="black"/>
<path d="M37.75 53.06H33.769V57.0349H37.75V53.06Z" fill="black"/>
<path d="M41.7309 53.06H37.75V57.0349H41.7309V53.06Z" fill="black"/>
<path d="M49.6928 53.06H45.7119V57.0349H49.6928V53.06Z" fill="black"/>
<path d="M57.6547 53.06H53.6738V57.0349H57.6547V53.06Z" fill="black"/>
<path d="M93.4829 53.06H89.502V57.0349H93.4829V53.06Z" fill="black"/>
<path d="M113.388 53.06H109.407V57.0349H113.388V53.06Z" fill="black"/>
<path d="M121.349 53.06H117.368V57.0349H121.349V53.06Z" fill="black"/>
<path d="M129.311 53.06H125.33V57.0349H129.311V53.06Z" fill="black"/>
<path d="M29.788 57.0349H25.8071V61.0099H29.788V57.0349Z" fill="black"/>
<path d="M33.769 57.0349H29.7881V61.0099H33.769V57.0349Z" fill="black"/>
<path d="M37.75 57.0349H33.769V61.0099H37.75V57.0349Z" fill="black"/>
<path d="M41.7309 57.0349H37.75V61.0099H41.7309V57.0349Z" fill="black"/>
<path d="M45.7119 57.0349H41.731V61.0099H45.7119V57.0349Z" fill="black"/>
<path d="M53.6738 57.0349H49.6929V61.0099H53.6738V57.0349Z" fill="black"/>
<path d="M57.6547 57.0349H53.6738V61.0099H57.6547V57.0349Z" fill="black"/>
<path d="M65.6167 57.0349H61.6357V61.0099H65.6167V57.0349Z" fill="black"/>
<path d="M69.5976 57.0349H65.6167V61.0099H69.5976V57.0349Z" fill="black"/>
<path d="M81.54 57.0349H77.5591V61.0099H81.54V57.0349Z" fill="black"/>
<path d="M89.5019 57.0349H85.521V61.0099H89.5019V57.0349Z" fill="black"/>
<path d="M97.4638 57.0349H93.4829V61.0099H97.4638V57.0349Z" fill="black"/>
<path d="M105.425 57.0349H101.444V61.0099H105.425V57.0349Z" fill="black"/>
<path d="M121.349 57.0349H117.368V61.0099H121.349V57.0349Z" fill="black"/>
<path d="M125.331 57.0349H121.35V61.0099H125.331V57.0349Z" fill="black"/>
<path d="M21.8266 61.0099H17.8457V64.9849H21.8266V61.0099Z" fill="black"/>
<path d="M25.8076 61.0099H21.8267V64.9849H25.8076V61.0099Z" fill="black"/>
<path d="M29.788 61.0099H25.8071V64.9849H29.788V61.0099Z" fill="black"/>
<path d="M37.75 61.0099H33.769V64.9849H37.75V61.0099Z" fill="black"/>
<path d="M41.7309 61.0099H37.75V64.9849H41.7309V61.0099Z" fill="black"/>
<path d="M49.6928 61.0099H45.7119V64.9849H49.6928V61.0099Z" fill="black"/>
<path d="M53.6738 61.0099H49.6929V64.9849H53.6738V61.0099Z" fill="black"/>
<path d="M57.6547 61.0099H53.6738V64.9849H57.6547V61.0099Z" fill="black"/>
<path d="M61.6357 61.0099H57.6548V64.9849H61.6357V61.0099Z" fill="black"/>
<path d="M65.6167 61.0099H61.6357V64.9849H65.6167V61.0099Z" fill="black"/>
<path d="M77.5595 61.0099H73.5786V64.9849H77.5595V61.0099Z" fill="black"/>
<path d="M85.521 61.0099H81.54V64.9849H85.521V61.0099Z" fill="black"/>
<path d="M93.4829 61.0099H89.502V64.9849H93.4829V61.0099Z" fill="black"/>
<path d="M97.4638 61.0099H93.4829V64.9849H97.4638V61.0099Z" fill="black"/>
<path d="M101.445 61.0099H97.4639V64.9849H101.445V61.0099Z" fill="black"/>
<path d="M109.406 61.0099H105.425V64.9849H109.406V61.0099Z" fill="black"/>
<path d="M117.369 61.0099H113.388V64.9849H117.369V61.0099Z" fill="black"/>
<path d="M121.349 61.0099H117.368V64.9849H121.349V61.0099Z" fill="black"/>
<path d="M133.292 61.0099H129.311V64.9849H133.292V61.0099Z" fill="black"/>
<path d="M33.769 64.9849H29.7881V68.9599H33.769V64.9849Z" fill="black"/>
<path d="M37.75 64.9849H33.769V68.9599H37.75V64.9849Z" fill="black"/>
<path d="M45.7119 64.9849H41.731V68.9599H45.7119V64.9849Z" fill="black"/>
<path d="M49.6928 64.9849H45.7119V68.9599H49.6928V64.9849Z" fill="black"/>
<path d="M53.6738 64.9849H49.6929V68.9599H53.6738V64.9849Z" fill="black"/>
<path d="M57.6547 64.9849H53.6738V68.9599H57.6547V64.9849Z" fill="black"/>
<path d="M65.6167 64.9849H61.6357V68.9599H65.6167V64.9849Z" fill="black"/>
<path d="M81.54 64.9849H77.5591V68.9599H81.54V64.9849Z" fill="black"/>
<path d="M105.425 64.9849H101.444V68.9599H105.425V64.9849Z" fill="black"/>
<path d="M113.388 64.9849H109.407V68.9599H113.388V64.9849Z" fill="black"/>
<path d="M21.8266 68.9599H17.8457V72.9349H21.8266V68.9599Z" fill="black"/>
<path d="M29.788 68.9599H25.8071V72.9349H29.788V68.9599Z" fill="black"/>
<path d="M37.75 68.9599H33.769V72.9349H37.75V68.9599Z" fill="black"/>
<path d="M41.7309 68.9599H37.75V72.9349H41.7309V68.9599Z" fill="black"/>
<path d="M53.6738 68.9599H49.6929V72.9349H53.6738V68.9599Z" fill="black"/>
<path d="M57.6547 68.9599H53.6738V72.9349H57.6547V68.9599Z" fill="black"/>
<path d="M61.6357 68.9599H57.6548V72.9349H61.6357V68.9599Z" fill="black"/>
<path d="M69.5976 68.9599H65.6167V72.9349H69.5976V68.9599Z" fill="black"/>
<path d="M73.5786 68.9599H69.5977V72.9349H73.5786V68.9599Z" fill="black"/>
<path d="M77.5595 68.9599H73.5786V72.9349H77.5595V68.9599Z" fill="black"/>
<path d="M85.521 68.9599H81.54V72.9349H85.521V68.9599Z" fill="black"/>
<path d="M97.4638 68.9599H93.4829V72.9349H97.4638V68.9599Z" fill="black"/>
<path d="M101.445 68.9599H97.4639V72.9349H101.445V68.9599Z" fill="black"/>
<path d="M105.425 68.9599H101.444V72.9349H105.425V68.9599Z" fill="black"/>
<path d="M109.406 68.9599H105.425V72.9349H109.406V68.9599Z" fill="black"/>
<path d="M113.388 68.9599H109.407V72.9349H113.388V68.9599Z" fill="black"/>
<path d="M117.369 68.9599H113.388V72.9349H117.369V68.9599Z" fill="black"/>
<path d="M121.349 68.9599H117.368V72.9349H121.349V68.9599Z" fill="black"/>
<path d="M129.311 68.9599H125.33V72.9349H129.311V68.9599Z" fill="black"/>
<path d="M21.8266 72.9349H17.8457V76.9099H21.8266V72.9349Z" fill="black"/>
<path d="M25.8076 72.9349H21.8267V76.9099H25.8076V72.9349Z" fill="black"/>
<path d="M29.788 72.9349H25.8071V76.9099H29.788V72.9349Z" fill="black"/>
<path d="M33.769 72.9349H29.7881V76.9099H33.769V72.9349Z" fill="black"/>
<path d="M41.7309 72.9349H37.75V76.9099H41.7309V72.9349Z" fill="black"/>
<path d="M45.7119 72.9349H41.731V76.9099H45.7119V72.9349Z" fill="black"/>
<path d="M53.6738 72.9349H49.6929V76.9099H53.6738V72.9349Z" fill="black"/>
<path d="M57.6547 72.9349H53.6738V76.9099H57.6547V72.9349Z" fill="black"/>
<path d="M73.5786 72.9349H69.5977V76.9099H73.5786V72.9349Z" fill="black"/>
<path d="M77.5595 72.9349H73.5786V76.9099H77.5595V72.9349Z" fill="black"/>
<path d="M89.5019 72.9349H85.521V76.9099H89.5019V72.9349Z" fill="black"/>
<path d="M101.445 72.9349H97.4639V76.9099H101.445V72.9349Z" fill="black"/>
<path d="M105.425 72.9349H101.444V76.9099H105.425V72.9349Z" fill="black"/>
<path d="M121.349 72.9349H117.368V76.9099H121.349V72.9349Z" fill="black"/>
<path d="M125.331 72.9349H121.35V76.9099H125.331V72.9349Z" fill="black"/>
<path d="M129.311 72.9349H125.33V76.9099H129.311V72.9349Z" fill="black"/>
<path d="M133.292 72.9349H129.311V76.9099H133.292V72.9349Z" fill="black"/>
<path d="M29.788 76.9099H25.8071V80.8849H29.788V76.9099Z" fill="black"/>
<path d="M33.769 76.9099H29.7881V80.8849H33.769V76.9099Z" fill="black"/>
<path d="M37.75 76.9099H33.769V80.8849H37.75V76.9099Z" fill="black"/>
<path d="M49.6928 76.9099H45.7119V80.8849H49.6928V76.9099Z" fill="black"/>
<path d="M53.6738 76.9099H49.6929V80.8849H53.6738V76.9099Z" fill="black"/>
<path d="M61.6357 76.9099H57.6548V80.8849H61.6357V76.9099Z" fill="black"/>
<path d="M69.5976 76.9099H65.6167V80.8849H69.5976V76.9099Z" fill="black"/>
<path d="M73.5786 76.9099H69.5977V80.8849H73.5786V76.9099Z" fill="black"/>
<path d="M93.4829 76.9099H89.502V80.8849H93.4829V76.9099Z" fill="black"/>
<path d="M97.4638 76.9099H93.4829V80.8849H97.4638V76.9099Z" fill="black"/>
<path d="M101.445 76.9099H97.4639V80.8849H101.445V76.9099Z" fill="black"/>
<path d="M109.406 76.9099H105.425V80.8849H109.406V76.9099Z" fill="black"/>
<path d="M113.388 76.9099H109.407V80.8849H113.388V76.9099Z" fill="black"/>
<path d="M117.369 76.9099H113.388V80.8849H117.369V76.9099Z" fill="black"/>
<path d="M129.311 76.9099H125.33V80.8849H129.311V76.9099Z" fill="black"/>
<path d="M133.292 76.9099H129.311V80.8849H133.292V76.9099Z" fill="black"/>
<path d="M21.8266 80.8848H17.8457V84.8598H21.8266V80.8848Z" fill="black"/>
<path d="M29.788 80.8848H25.8071V84.8598H29.788V80.8848Z" fill="black"/>
<path d="M37.75 80.8848H33.769V84.8598H37.75V80.8848Z" fill="black"/>
<path d="M45.7119 80.8848H41.731V84.8598H45.7119V80.8848Z" fill="black"/>
<path d="M49.6928 80.8848H45.7119V84.8598H49.6928V80.8848Z" fill="black"/>
<path d="M53.6738 80.8848H49.6929V84.8598H53.6738V80.8848Z" fill="black"/>
<path d="M61.6357 80.8848H57.6548V84.8598H61.6357V80.8848Z" fill="black"/>
<path d="M69.5976 80.8848H65.6167V84.8598H69.5976V80.8848Z" fill="black"/>
<path d="M77.5595 80.8848H73.5786V84.8598H77.5595V80.8848Z" fill="black"/>
<path d="M81.54 80.8848H77.5591V84.8598H81.54V80.8848Z" fill="black"/>
<path d="M89.5019 80.8848H85.521V84.8598H89.5019V80.8848Z" fill="black"/>
<path d="M93.4829 80.8848H89.502V84.8598H93.4829V80.8848Z" fill="black"/>
<path d="M105.425 80.8848H101.444V84.8598H105.425V80.8848Z" fill="black"/>
<path d="M113.388 80.8848H109.407V84.8598H113.388V80.8848Z" fill="black"/>
<path d="M21.8266 84.8598H17.8457V88.8348H21.8266V84.8598Z" fill="black"/>
<path d="M29.788 84.8598H25.8071V88.8348H29.788V84.8598Z" fill="black"/>
<path d="M41.7309 84.8598H37.75V88.8348H41.7309V84.8598Z" fill="black"/>
<path d="M53.6738 84.8598H49.6929V88.8348H53.6738V84.8598Z" fill="black"/>
<path d="M57.6547 84.8598H53.6738V88.8348H57.6547V84.8598Z" fill="black"/>
<path d="M81.54 84.8598H77.5591V88.8348H81.54V84.8598Z" fill="black"/>
<path d="M85.521 84.8598H81.54V88.8348H85.521V84.8598Z" fill="black"/>
<path d="M101.445 84.8598H97.4639V88.8348H101.445V84.8598Z" fill="black"/>
<path d="M105.425 84.8598H101.444V88.8348H105.425V84.8598Z" fill="black"/>
<path d="M113.388 84.8598H109.407V88.8348H113.388V84.8598Z" fill="black"/>
<path d="M117.369 84.8598H113.388V88.8348H117.369V84.8598Z" fill="black"/>
<path d="M121.349 84.8598H117.368V88.8348H121.349V84.8598Z" fill="black"/>
<path d="M133.292 84.8598H129.311V88.8348H133.292V84.8598Z" fill="black"/>
<path d="M21.8266 88.8348H17.8457V92.8098H21.8266V88.8348Z" fill="black"/>
<path d="M29.788 88.8348H25.8071V92.8098H29.788V88.8348Z" fill="black"/>
<path d="M45.7119 88.8348H41.731V92.8098H45.7119V88.8348Z" fill="black"/>
<path d="M49.6928 88.8348H45.7119V92.8098H49.6928V88.8348Z" fill="black"/>
<path d="M53.6738 88.8348H49.6929V92.8098H53.6738V88.8348Z" fill="black"/>
<path d="M57.6547 88.8348H53.6738V92.8098H57.6547V88.8348Z" fill="black"/>
<path d="M65.6167 88.8348H61.6357V92.8098H65.6167V88.8348Z" fill="black"/>
<path d="M69.5976 88.8348H65.6167V92.8098H69.5976V88.8348Z" fill="black"/>
<path d="M81.54 88.8348H77.5591V92.8098H81.54V88.8348Z" fill="black"/>
<path d="M85.521 88.8348H81.54V92.8098H85.521V88.8348Z" fill="black"/>
<path d="M89.5019 88.8348H85.521V92.8098H89.5019V88.8348Z" fill="black"/>
<path d="M97.4638 88.8348H93.4829V92.8098H97.4638V88.8348Z" fill="black"/>
<path d="M105.425 88.8348H101.444V92.8098H105.425V88.8348Z" fill="black"/>
<path d="M121.349 88.8348H117.368V92.8098H121.349V88.8348Z" fill="black"/>
<path d="M125.331 88.8348H121.35V92.8098H125.331V88.8348Z" fill="black"/>
<path d="M129.311 88.8348H125.33V92.8098H129.311V88.8348Z" fill="black"/>
<path d="M21.8266 92.8098H17.8457V96.7848H21.8266V92.8098Z" fill="black"/>
<path d="M29.788 92.8098H25.8071V96.7848H29.788V92.8098Z" fill="black"/>
<path d="M33.769 92.8098H29.7881V96.7848H33.769V92.8098Z" fill="black"/>
<path d="M37.75 92.8098H33.769V96.7848H37.75V92.8098Z" fill="black"/>
<path d="M49.6928 92.8098H45.7119V96.7848H49.6928V92.8098Z" fill="black"/>
<path d="M53.6738 92.8098H49.6929V96.7848H53.6738V92.8098Z" fill="black"/>
<path d="M65.6167 92.8098H61.6357V96.7848H65.6167V92.8098Z" fill="black"/>
<path d="M77.5595 92.8098H73.5786V96.7848H77.5595V92.8098Z" fill="black"/>
<path d="M85.521 92.8098H81.54V96.7848H85.521V92.8098Z" fill="black"/>
<path d="M89.5019 92.8098H85.521V96.7848H89.5019V92.8098Z" fill="black"/>
<path d="M93.4829 92.8098H89.502V96.7848H93.4829V92.8098Z" fill="black"/>
<path d="M97.4638 92.8098H93.4829V96.7848H97.4638V92.8098Z" fill="black"/>
<path d="M101.445 92.8098H97.4639V96.7848H101.445V92.8098Z" fill="black"/>
<path d="M109.406 92.8098H105.425V96.7848H109.406V92.8098Z" fill="black"/>
<path d="M113.388 92.8098H109.407V96.7848H113.388V92.8098Z" fill="black"/>
<path d="M117.369 92.8098H113.388V96.7848H117.369V92.8098Z" fill="black"/>
<path d="M129.311 92.8098H125.33V96.7848H129.311V92.8098Z" fill="black"/>
<path d="M133.292 92.8098H129.311V96.7848H133.292V92.8098Z" fill="black"/>
<path d="M21.8266 96.7848H17.8457V100.76H21.8266V96.7848Z" fill="black"/>
<path d="M29.788 96.7848H25.8071V100.76H29.788V96.7848Z" fill="black"/>
<path d="M33.769 96.7848H29.7881V100.76H33.769V96.7848Z" fill="black"/>
<path d="M37.75 96.7848H33.769V100.76H37.75V96.7848Z" fill="black"/>
<path d="M45.7119 96.7848H41.731V100.76H45.7119V96.7848Z" fill="black"/>
<path d="M49.6928 96.7848H45.7119V100.76H49.6928V96.7848Z" fill="black"/>
<path d="M57.6547 96.7848H53.6738V100.76H57.6547V96.7848Z" fill="black"/>
<path d="M65.6167 96.7848H61.6357V100.76H65.6167V96.7848Z" fill="black"/>
<path d="M81.54 96.7848H77.5591V100.76H81.54V96.7848Z" fill="black"/>
<path d="M85.521 96.7848H81.54V100.76H85.521V96.7848Z" fill="black"/>
<path d="M93.4829 96.7848H89.502V100.76H93.4829V96.7848Z" fill="black"/>
<path d="M101.445 96.7848H97.4639V100.76H101.445V96.7848Z" fill="black"/>
<path d="M105.425 96.7848H101.444V100.76H105.425V96.7848Z" fill="black"/>
<path d="M109.406 96.7848H105.425V100.76H109.406V96.7848Z" fill="black"/>
<path d="M113.388 96.7848H109.407V100.76H113.388V96.7848Z" fill="black"/>
<path d="M117.369 96.7848H113.388V100.76H117.369V96.7848Z" fill="black"/>
<path d="M121.349 96.7848H117.368V100.76H121.349V96.7848Z" fill="black"/>
<path d="M125.331 96.7848H121.35V100.76H125.331V96.7848Z" fill="black"/>
<path d="M129.311 96.7848H125.33V100.76H129.311V96.7848Z" fill="black"/>
<path d="M53.6738 100.76H49.6929V104.735H53.6738V100.76Z" fill="black"/>
<path d="M61.6357 100.76H57.6548V104.735H61.6357V100.76Z" fill="black"/>
<path d="M69.5976 100.76H65.6167V104.735H69.5976V100.76Z" fill="black"/>
<path d="M73.5786 100.76H69.5977V104.735H73.5786V100.76Z" fill="black"/>
<path d="M77.5595 100.76H73.5786V104.735H77.5595V100.76Z" fill="black"/>
<path d="M81.54 100.76H77.5591V104.735H81.54V100.76Z" fill="black"/>
<path d="M97.4638 100.76H93.4829V104.735H97.4638V100.76Z" fill="black"/>
<path d="M101.445 100.76H97.4639V104.735H101.445V100.76Z" fill="black"/>
<path d="M117.369 100.76H113.388V104.735H117.369V100.76Z" fill="black"/>
<path d="M129.311 100.76H125.33V104.735H129.311V100.76Z" fill="black"/>
<path d="M53.6738 104.735H49.6929V108.71H53.6738V104.735Z" fill="black"/>
<path d="M73.5786 104.735H69.5977V108.71H73.5786V104.735Z" fill="black"/>
<path d="M77.5595 104.735H73.5786V108.71H77.5595V104.735Z" fill="black"/>
<path d="M89.5019 104.735H85.521V108.71H89.5019V104.735Z" fill="black"/>
<path d="M101.445 104.735H97.4639V108.71H101.445V104.735Z" fill="black"/>
<path d="M109.406 104.735H105.425V108.71H109.406V104.735Z" fill="black"/>
<path d="M117.369 104.735H113.388V108.71H117.369V104.735Z" fill="black"/>
<path d="M121.349 104.735H117.368V108.71H121.349V104.735Z" fill="black"/>
<path d="M125.331 104.735H121.35V108.71H125.331V104.735Z" fill="black"/>
<path d="M69.5976 108.71H65.6167V112.685H69.5976V108.71Z" fill="black"/>
<path d="M73.5786 108.71H69.5977V112.685H73.5786V108.71Z" fill="black"/>
<path d="M85.521 108.71H81.54V112.685H85.521V108.71Z" fill="black"/>
<path d="M93.4829 108.71H89.502V112.685H93.4829V108.71Z" fill="black"/>
<path d="M97.4638 108.71H93.4829V112.685H97.4638V108.71Z" fill="black"/>
<path d="M101.445 108.71H97.4639V112.685H101.445V108.71Z" fill="black"/>
<path d="M117.369 108.71H113.388V112.685H117.369V108.71Z" fill="black"/>
<path d="M125.331 108.71H121.35V112.685H125.331V108.71Z" fill="black"/>
<path d="M129.311 108.71H125.33V112.685H129.311V108.71Z" fill="black"/>
<path d="M133.292 108.71H129.311V112.685H133.292V108.71Z" fill="black"/>
<path d="M53.6738 112.685H49.6929V116.66H53.6738V112.685Z" fill="black"/>
<path d="M57.6547 112.685H53.6738V116.66H57.6547V112.685Z" fill="black"/>
<path d="M61.6357 112.685H57.6548V116.66H61.6357V112.685Z" fill="black"/>
<path d="M69.5976 112.685H65.6167V116.66H69.5976V112.685Z" fill="black"/>
<path d="M77.5595 112.685H73.5786V116.66H77.5595V112.685Z" fill="black"/>
<path d="M81.54 112.685H77.5591V116.66H81.54V112.685Z" fill="black"/>
<path d="M93.4829 112.685H89.502V116.66H93.4829V112.685Z" fill="black"/>
<path d="M97.4638 112.685H93.4829V116.66H97.4638V112.685Z" fill="black"/>
<path d="M101.445 112.685H97.4639V116.66H101.445V112.685Z" fill="black"/>
<path d="M105.425 112.685H101.444V116.66H105.425V112.685Z" fill="black"/>
<path d="M109.406 112.685H105.425V116.66H109.406V112.685Z" fill="black"/>
<path d="M113.388 112.685H109.407V116.66H113.388V112.685Z" fill="black"/>
<path d="M117.369 112.685H113.388V116.66H117.369V112.685Z" fill="black"/>
<path d="M125.331 112.685H121.35V116.66H125.331V112.685Z" fill="black"/>
<path d="M129.311 112.685H125.33V116.66H129.311V112.685Z" fill="black"/>
<path d="M133.292 112.685H129.311V116.66H133.292V112.685Z" fill="black"/>
<path d="M53.6738 116.66H49.6929V120.635H53.6738V116.66Z" fill="black"/>
<path d="M57.6547 116.66H53.6738V120.635H57.6547V116.66Z" fill="black"/>
<path d="M101.445 116.66H97.4639V120.635H101.445V116.66Z" fill="black"/>
<path d="M105.425 116.66H101.444V120.635H105.425V116.66Z" fill="black"/>
<path d="M113.388 116.66H109.407V120.635H113.388V116.66Z" fill="black"/>
<path d="M53.6738 120.635H49.6929V124.61H53.6738V120.635Z" fill="black"/>
<path d="M65.6167 120.635H61.6357V124.61H65.6167V120.635Z" fill="black"/>
<path d="M69.5976 120.635H65.6167V124.61H69.5976V120.635Z" fill="black"/>
<path d="M81.54 120.635H77.5591V124.61H81.54V120.635Z" fill="black"/>
<path d="M89.5019 120.635H85.521V124.61H89.5019V120.635Z" fill="black"/>
<path d="M105.425 120.635H101.444V124.61H105.425V120.635Z" fill="black"/>
<path d="M109.406 120.635H105.425V124.61H109.406V120.635Z" fill="black"/>
<path d="M113.388 120.635H109.407V124.61H113.388V120.635Z" fill="black"/>
<path d="M125.331 120.635H121.35V124.61H125.331V120.635Z" fill="black"/>
<path d="M129.311 120.635H125.33V124.61H129.311V120.635Z" fill="black"/>
<path d="M53.6738 124.61H49.6929V128.585H53.6738V124.61Z" fill="black"/>
<path d="M57.6547 124.61H53.6738V128.585H57.6547V124.61Z" fill="black"/>
<path d="M65.6167 124.61H61.6357V128.585H65.6167V124.61Z" fill="black"/>
<path d="M77.5595 124.61H73.5786V128.585H77.5595V124.61Z" fill="black"/>
<path d="M85.521 124.61H81.54V128.585H85.521V124.61Z" fill="black"/>
<path d="M89.5019 124.61H85.521V128.585H89.5019V124.61Z" fill="black"/>
<path d="M93.4829 124.61H89.502V128.585H93.4829V124.61Z" fill="black"/>
<path d="M97.4638 124.61H93.4829V128.585H97.4638V124.61Z" fill="black"/>
<path d="M105.425 124.61H101.444V128.585H105.425V124.61Z" fill="black"/>
<path d="M121.349 124.61H117.368V128.585H121.349V124.61Z" fill="black"/>
<path d="M125.331 124.61H121.35V128.585H125.331V124.61Z" fill="black"/>
<path d="M133.292 124.61H129.311V128.585H133.292V124.61Z" fill="black"/>
<path d="M53.6738 128.585H49.6929V132.56H53.6738V128.585Z" fill="black"/>
<path d="M61.6357 128.585H57.6548V132.56H61.6357V128.585Z" fill="black"/>
<path d="M65.6167 128.585H61.6357V132.56H65.6167V128.585Z" fill="black"/>
<path d="M81.54 128.585H77.5591V132.56H81.54V128.585Z" fill="black"/>
<path d="M97.4638 128.585H93.4829V132.56H97.4638V128.585Z" fill="black"/>
<path d="M109.406 128.585H105.425V132.56H109.406V128.585Z" fill="black"/>
<path d="M117.369 128.585H113.388V132.56H117.369V128.585Z" fill="black"/>
<path d="M121.349 128.585H117.368V132.56H121.349V128.585Z" fill="black"/>
<path d="M125.331 128.585H121.35V132.56H125.331V128.585Z" fill="black"/>
<g clip-path="url(#clip2_21_2)">
<path d="M41.7712 17.2851H37.7902H33.8094H33.8093H29.8285H25.8476H21.8667H17.8857V21.2601V25.2351V29.2101V33.1851V37.16V41.135V45.1099H21.8667H25.8476H29.8285H33.8093H33.8094H37.7902H41.7712H45.7521V41.135V37.16V33.1851V29.2101V25.2351V21.2601V17.2851H41.7712ZM41.7712 25.2351V29.2101V33.1851V37.16V41.135H37.7902H33.8094H33.8093H29.8285H25.8476H21.8667V37.16V33.1851V29.2101V25.2351V21.2601H25.8476H29.8285H33.8093H33.8094H37.7902H41.7712V25.2351Z" fill="black"/>
</g>
<path d="M33.7694 25.2351H33.7693H29.7885H25.8076V29.21V33.1851V37.16H29.7885H33.7693H33.7694H37.7502V33.1851V29.21V25.2351H33.7694Z" fill="black"/>
<g clip-path="url(#clip3_21_2)">
<path d="M129.351 17.2851H125.37H121.389H121.389H117.408H113.427H109.446H105.465V21.2601V25.2351V29.2101V33.1851V37.16V41.135V45.1099H109.446H113.427H117.408H121.389H121.389H125.37H129.351H133.332V41.135V37.16V33.1851V29.2101V25.2351V21.2601V17.2851H129.351ZM129.351 25.2351V29.2101V33.1851V37.16V41.135H125.37H121.389H121.389H117.408H113.427H109.446V37.16V33.1851V29.2101V25.2351V21.2601H113.427H117.408H121.389H121.389H125.37H129.351V25.2351Z" fill="black"/>
</g>
<path d="M121.349 25.2351H121.349H117.368H113.387V29.21V33.1851V37.16H117.368H121.349H121.349H125.33V33.1851V29.21V25.2351H121.349Z" fill="black"/>
<g clip-path="url(#clip4_21_2)">
<path d="M41.7712 104.735H37.7902H33.8094H33.8093H29.8285H25.8476H21.8667H17.8857V108.71V112.685V116.66V120.635V124.61V128.585V132.56H21.8667H25.8476H29.8285H33.8093H33.8094H37.7902H41.7712H45.7521V128.585V124.61V120.635V116.66V112.685V108.71V104.735H41.7712ZM41.7712 112.685V116.66V120.635V124.61V128.585H37.7902H33.8094H33.8093H29.8285H25.8476H21.8667V124.61V120.635V116.66V112.685V108.71H25.8476H29.8285H33.8093H33.8094H37.7902H41.7712V112.685Z" fill="black"/>
</g>
<path d="M33.7694 112.685H33.7693H29.7885H25.8076V116.66V120.635V124.61H29.7885H33.7693H33.7694H37.7502V120.635V116.66V112.685H33.7694Z" fill="black"/>
</g>
<path d="M7.91276 186.069H143.187C147.271 186.069 150.55 182.742 150.55 178.717V7.4209C150.55 3.34242 147.218 0.0689087 143.187 0.0689087H7.9665C3.88194 0.0689087 0.603549 3.39609 0.549805 7.4209V178.717C0.549805 182.795 3.88194 186.069 7.91276 186.069ZM6.24669 9.67479C6.24669 7.47456 8.02025 5.70365 10.2238 5.70365H140.93C143.133 5.70365 144.907 7.47456 144.907 9.67479V140.24C144.907 142.44 143.133 144.211 140.93 144.211H10.2238C8.02025 144.211 6.24669 142.44 6.24669 140.24V9.67479Z" fill="black"/>
<path d="M30.0554 171.902C32.5276 171.848 33.8175 170.989 33.8175 169.218C33.8175 167.769 33.0113 166.964 31.3452 166.642C30.5928 166.535 29.7329 166.428 28.8193 166.267C27.1532 165.998 25.9171 165.408 25.0572 164.442C24.1973 163.476 23.7136 162.296 23.7136 160.9C23.7136 159.237 24.251 157.895 25.3796 156.876C26.4545 155.856 27.9593 155.373 29.9479 155.319C32.3126 155.373 34.4086 156.017 36.1285 157.305L34.5161 159.666C33.065 158.7 31.5065 158.217 29.7866 158.217C28.873 158.217 28.1743 158.432 27.5294 158.861C26.8845 159.344 26.562 159.988 26.562 160.954C26.562 161.491 26.777 162.027 27.2069 162.457C27.6369 162.886 28.3356 163.208 29.2492 163.423C29.7866 163.53 30.4853 163.637 31.399 163.745C33.1725 164.013 34.5161 164.657 35.376 165.676C36.236 166.696 36.6659 167.877 36.6659 169.218C36.5584 172.867 34.3549 174.746 29.9479 174.799C27.0994 174.799 24.681 173.941 22.6387 172.17L24.5197 169.97C26.132 171.258 27.9593 171.902 30.0554 171.902ZM52.6279 169.326C52.198 171.097 51.3918 172.438 50.2094 173.404C48.9733 174.37 47.576 174.799 45.9099 174.799C44.4051 174.746 43.1689 174.424 42.1478 173.672C41.1267 172.975 40.3743 172.224 39.8906 171.365C39.7293 171.097 39.6218 170.828 39.5143 170.56C39.4069 170.292 39.2994 169.97 39.2456 169.54C39.1381 168.789 39.0306 167.286 39.0306 165.086C39.0306 162.886 39.0844 161.383 39.2456 160.632C39.4069 159.881 39.6218 159.29 39.8906 158.807C40.3743 157.949 41.0729 157.144 42.1478 156.446C43.1689 155.749 44.4051 155.373 45.9099 155.373C47.7372 155.373 49.242 155.91 50.4244 157.037C51.6068 158.11 52.3055 159.451 52.6279 161.061H49.5645C49.3495 160.31 48.9196 159.612 48.2746 159.076C47.6297 158.539 46.8236 158.271 45.9099 158.271C45.2112 158.271 44.62 158.432 44.1363 158.7C43.6526 158.968 43.2227 159.29 42.954 159.666C42.5778 160.095 42.309 160.632 42.2016 161.276C42.0403 161.974 41.9866 163.262 41.9866 165.14C41.9866 167.018 42.0403 168.306 42.2016 168.95C42.309 169.594 42.5778 170.131 42.954 170.56C43.2764 170.936 43.6526 171.258 44.1363 171.526C44.62 171.794 45.2112 171.955 45.9099 171.955C47.5222 171.955 48.7583 171.097 49.5645 169.326H52.6279ZM64.5591 170.399H57.3037L55.8526 174.692H52.7892L59.7222 155.588H62.1406L69.0736 174.692H66.0102L64.5591 170.399ZM63.6455 167.823L60.8508 159.451H60.797L58.0023 167.823H63.6455ZM71.0622 155.534H73.8031L82.4559 169.111H82.5097V155.534H85.4119V174.638H82.6709L74.0719 161.061H74.0181V174.638H71.1159V155.534H71.0622ZM95.892 155.534H98.6329L104.115 167.984L109.489 155.534H112.23V174.638H109.328V162.725H109.274L105.297 171.902H102.879L98.9017 162.725V174.638H95.9995V155.534H95.892ZM116.261 155.534H128.461V158.271H119.163V163.745H127.117V166.32H119.163V171.902H128.461V174.638H116.261V155.534Z" fill="white"/>
</g>
<defs>
<clipPath id="clip0_21_2">
<rect width="150" height="186" fill="white" transform="translate(0.549805 0.0689087)"/>
</clipPath>
<clipPath id="clip1_21_2">
<rect width="139.681" height="139.473" fill="white" transform="translate(5.76318 5.22066)"/>
</clipPath>
<clipPath id="clip2_21_2">
<rect width="27.8664" height="27.8249" fill="white" transform="translate(17.8457 17.2851)"/>
</clipPath>
<clipPath id="clip3_21_2">
<rect width="27.8664" height="27.8249" fill="white" transform="translate(105.425 17.2851)"/>
</clipPath>
<clipPath id="clip4_21_2">
<rect width="27.8664" height="27.8249" fill="white" transform="translate(17.8457 104.735)"/>
</clipPath>
</defs>
</svg>
